<svg id="visual" viewBox="0 0 1040 1450" width="1040" height="1450" xmlns="http://www.w3.org/2000/svg" xmlns:xlink="http://www.w3.org/1999/xlink" version="1.1"><rect x="0" y="0" width="1040" height="1450" fill="#68e9da"></rect><path d="M0 825L13.3 834.8C26.7 844.7 53.3 864.3 80 856.7C106.7 849 133.3 814 160 870.7C186.7 927.3 213.3 1075.7 240 1120.8C266.7 1166 293.3 1108 320 1059.8C346.7 1011.7 373.3 973.3 400 975.8C426.7 978.3 453.3 1021.7 480 1034.3C506.7 1047 533.3 1029 560 960.7C586.7 892.3 613.3 773.7 640 796.2C666.7 818.7 693.3 982.3 720 1000.7C746.7 1019 773.3 892 800 843C826.7 794 853.3 823 880 844.5C906.7 866 933.3 880 960 853.8C986.7 827.7 1013.3 761.3 1026.7 728.2L1040 695" fill="none" stroke-linecap="round" stroke-linejoin="miter" stroke="#32ca49" stroke-width="40"></path></svg>